<mxfile host="65bd71144e" pages="3">
    <diagram name="Page-1" id="2YBvvXClWsGukQMizWep">
        <mxGraphModel dx="885" dy="596" grid="1" gridSize="9" guides="1" tooltips="1" connect="1" arrows="1" fold="1" page="1" pageScale="1" pageWidth="850" pageHeight="1100" background="none" math="0" shadow="0">
            <root>
                <mxCell id="0"/>
                <mxCell id="1" parent="0"/>
                <mxCell id="_PREPIEA0mIF2PM7kYiS-1" value="user&lt;br&gt;" style="shape=umlActor;verticalLabelPosition=bottom;verticalAlign=top;html=1;outlineConnect=0;labelBackgroundColor=none;rounded=1;strokeWidth=2;" parent="1" vertex="1">
                    <mxGeometry x="60" y="143" width="30" height="60" as="geometry"/>
                </mxCell>
                <mxCell id="_PREPIEA0mIF2PM7kYiS-10" value="" style="endArrow=none;dashed=1;html=1;rounded=1;labelBackgroundColor=none;fontColor=default;strokeWidth=2;" parent="1" target="_PREPIEA0mIF2PM7kYiS-9" edge="1">
                    <mxGeometry width="50" height="50" relative="1" as="geometry">
                        <mxPoint x="75" y="623" as="sourcePoint"/>
                        <mxPoint x="75" y="203" as="targetPoint"/>
                    </mxGeometry>
                </mxCell>
                <mxCell id="_PREPIEA0mIF2PM7kYiS-9" value="" style="rounded=1;whiteSpace=wrap;html=1;labelBackgroundColor=none;strokeWidth=2;" parent="1" vertex="1">
                    <mxGeometry x="70" y="229" width="10" height="486" as="geometry"/>
                </mxCell>
                <mxCell id="CftCwrz-9hFsydS2TWhx-13" value="Message Application" style="shape=umlLifeline;perimeter=lifelinePerimeter;whiteSpace=wrap;html=1;container=1;dropTarget=0;collapsible=0;recursiveResize=0;outlineConnect=0;portConstraint=eastwest;newEdgeStyle={&quot;curved&quot;:0,&quot;rounded&quot;:0};strokeWidth=2;" parent="1" vertex="1">
                    <mxGeometry x="288" y="166" width="108" height="549" as="geometry"/>
                </mxCell>
                <mxCell id="CftCwrz-9hFsydS2TWhx-17" value="" style="html=1;points=[[0,0,0,0,5],[0,1,0,0,-5],[1,0,0,0,5],[1,1,0,0,-5]];perimeter=orthogonalPerimeter;outlineConnect=0;targetShapes=umlLifeline;portConstraint=eastwest;newEdgeStyle={&quot;curved&quot;:0,&quot;rounded&quot;:0};strokeWidth=2;" parent="CftCwrz-9hFsydS2TWhx-13" vertex="1">
                    <mxGeometry x="48" y="84" width="10" height="80" as="geometry"/>
                </mxCell>
                <mxCell id="CftCwrz-9hFsydS2TWhx-33" value="" style="html=1;points=[[0,0,0,0,5],[0,1,0,0,-5],[1,0,0,0,5],[1,1,0,0,-5]];perimeter=orthogonalPerimeter;outlineConnect=0;targetShapes=umlLifeline;portConstraint=eastwest;newEdgeStyle={&quot;curved&quot;:0,&quot;rounded&quot;:0};strokeWidth=2;" parent="CftCwrz-9hFsydS2TWhx-13" vertex="1">
                    <mxGeometry x="50" y="224" width="10" height="129" as="geometry"/>
                </mxCell>
                <mxCell id="GeAqq0kVGGHvpLr57b-p-15" value="" style="html=1;points=[[0,0,0,0,5],[0,1,0,0,-5],[1,0,0,0,5],[1,1,0,0,-5]];perimeter=orthogonalPerimeter;outlineConnect=0;targetShapes=umlLifeline;portConstraint=eastwest;newEdgeStyle={&quot;curved&quot;:0,&quot;rounded&quot;:0};strokeWidth=2;" parent="CftCwrz-9hFsydS2TWhx-13" vertex="1">
                    <mxGeometry x="50" y="447" width="10" height="80" as="geometry"/>
                </mxCell>
                <mxCell id="CftCwrz-9hFsydS2TWhx-18" value="Validate User" style="html=1;verticalAlign=bottom;endArrow=block;curved=0;rounded=0;strokeWidth=2;" parent="1" edge="1">
                    <mxGeometry relative="1" as="geometry">
                        <mxPoint x="207" y="266" as="sourcePoint"/>
                        <mxPoint x="335" y="266" as="targetPoint"/>
                        <Array as="points">
                            <mxPoint x="272" y="266"/>
                        </Array>
                    </mxGeometry>
                </mxCell>
                <mxCell id="CftCwrz-9hFsydS2TWhx-19" value="User Validated" style="html=1;verticalAlign=bottom;endArrow=open;dashed=1;endSize=8;curved=0;rounded=0;strokeWidth=2;" parent="1" edge="1">
                    <mxGeometry relative="1" as="geometry">
                        <mxPoint x="207" y="308" as="targetPoint"/>
                        <mxPoint x="333" y="308" as="sourcePoint"/>
                    </mxGeometry>
                </mxCell>
                <mxCell id="CftCwrz-9hFsydS2TWhx-20" value="Key Management System" style="shape=umlLifeline;perimeter=lifelinePerimeter;whiteSpace=wrap;html=1;container=1;dropTarget=0;collapsible=0;recursiveResize=0;outlineConnect=0;portConstraint=eastwest;newEdgeStyle={&quot;curved&quot;:0,&quot;rounded&quot;:0};strokeWidth=2;" parent="1" vertex="1">
                    <mxGeometry x="423" y="166" width="117" height="549" as="geometry"/>
                </mxCell>
                <mxCell id="GeAqq0kVGGHvpLr57b-p-5" value="" style="html=1;points=[[0,0,0,0,5],[0,1,0,0,-5],[1,0,0,0,5],[1,1,0,0,-5]];perimeter=orthogonalPerimeter;outlineConnect=0;targetShapes=umlLifeline;portConstraint=eastwest;newEdgeStyle={&quot;curved&quot;:0,&quot;rounded&quot;:0};strokeWidth=2;" parent="CftCwrz-9hFsydS2TWhx-20" vertex="1">
                    <mxGeometry x="53.5" y="253" width="10" height="80" as="geometry"/>
                </mxCell>
                <mxCell id="CftCwrz-9hFsydS2TWhx-21" value="User interface" style="shape=umlLifeline;perimeter=lifelinePerimeter;whiteSpace=wrap;html=1;container=1;dropTarget=0;collapsible=0;recursiveResize=0;outlineConnect=0;portConstraint=eastwest;newEdgeStyle={&quot;curved&quot;:0,&quot;rounded&quot;:0};strokeWidth=2;" parent="1" vertex="1">
                    <mxGeometry x="153" y="167" width="100" height="548" as="geometry"/>
                </mxCell>
                <mxCell id="CftCwrz-9hFsydS2TWhx-22" value="" style="html=1;points=[[0,0,0,0,5],[0,1,0,0,-5],[1,0,0,0,5],[1,1,0,0,-5]];perimeter=orthogonalPerimeter;outlineConnect=0;targetShapes=umlLifeline;portConstraint=eastwest;newEdgeStyle={&quot;curved&quot;:0,&quot;rounded&quot;:0};strokeWidth=2;" parent="CftCwrz-9hFsydS2TWhx-21" vertex="1">
                    <mxGeometry x="44" y="75" width="10" height="100" as="geometry"/>
                </mxCell>
                <mxCell id="CftCwrz-9hFsydS2TWhx-23" value="Login" style="html=1;verticalAlign=bottom;endArrow=block;curved=0;rounded=0;entryX=0;entryY=0;entryDx=0;entryDy=5;strokeWidth=2;" parent="CftCwrz-9hFsydS2TWhx-21" edge="1">
                    <mxGeometry relative="1" as="geometry">
                        <mxPoint x="-72" y="90" as="sourcePoint"/>
                        <mxPoint x="44" y="90.00000000000011" as="targetPoint"/>
                    </mxGeometry>
                </mxCell>
                <mxCell id="CftCwrz-9hFsydS2TWhx-30" value="" style="html=1;points=[[0,0,0,0,5],[0,1,0,0,-5],[1,0,0,0,5],[1,1,0,0,-5]];perimeter=orthogonalPerimeter;outlineConnect=0;targetShapes=umlLifeline;portConstraint=eastwest;newEdgeStyle={&quot;curved&quot;:0,&quot;rounded&quot;:0};strokeWidth=2;" parent="CftCwrz-9hFsydS2TWhx-21" vertex="1">
                    <mxGeometry x="45" y="207" width="10" height="162" as="geometry"/>
                </mxCell>
                <mxCell id="GeAqq0kVGGHvpLr57b-p-12" value="" style="html=1;points=[[0,0,0,0,5],[0,1,0,0,-5],[1,0,0,0,5],[1,1,0,0,-5]];perimeter=orthogonalPerimeter;outlineConnect=0;targetShapes=umlLifeline;portConstraint=eastwest;newEdgeStyle={&quot;curved&quot;:0,&quot;rounded&quot;:0};strokeWidth=2;" parent="CftCwrz-9hFsydS2TWhx-21" vertex="1">
                    <mxGeometry x="45" y="446" width="10" height="80" as="geometry"/>
                </mxCell>
                <mxCell id="CftCwrz-9hFsydS2TWhx-24" value="Access Granted" style="html=1;verticalAlign=bottom;endArrow=open;dashed=1;endSize=8;curved=0;rounded=0;strokeWidth=2;" parent="1" source="CftCwrz-9hFsydS2TWhx-22" edge="1">
                    <mxGeometry relative="1" as="geometry">
                        <mxPoint x="81" y="322" as="targetPoint"/>
                    </mxGeometry>
                </mxCell>
                <mxCell id="CftCwrz-9hFsydS2TWhx-26" value="Encryption Algorithm" style="shape=umlLifeline;perimeter=lifelinePerimeter;whiteSpace=wrap;html=1;container=1;dropTarget=0;collapsible=0;recursiveResize=0;outlineConnect=0;portConstraint=eastwest;newEdgeStyle={&quot;curved&quot;:0,&quot;rounded&quot;:0};strokeWidth=2;" parent="1" vertex="1">
                    <mxGeometry x="567" y="166" width="117" height="549" as="geometry"/>
                </mxCell>
                <mxCell id="GeAqq0kVGGHvpLr57b-p-1" value="" style="html=1;points=[[0,0,0,0,5],[0,1,0,0,-5],[1,0,0,0,5],[1,1,0,0,-5]];perimeter=orthogonalPerimeter;outlineConnect=0;targetShapes=umlLifeline;portConstraint=eastwest;newEdgeStyle={&quot;curved&quot;:0,&quot;rounded&quot;:0};strokeWidth=2;" parent="CftCwrz-9hFsydS2TWhx-26" vertex="1">
                    <mxGeometry x="53.5" y="256" width="10" height="71" as="geometry"/>
                </mxCell>
                <mxCell id="CftCwrz-9hFsydS2TWhx-27" value="Database" style="shape=datastore;whiteSpace=wrap;html=1;strokeWidth=2;" parent="1" vertex="1">
                    <mxGeometry x="738" y="166" width="60" height="60" as="geometry"/>
                </mxCell>
                <mxCell id="CftCwrz-9hFsydS2TWhx-29" value="" style="endArrow=none;dashed=1;html=1;rounded=0;exitX=0.4;exitY=-0.022;exitDx=0;exitDy=0;exitPerimeter=0;strokeWidth=2;" parent="1" edge="1">
                    <mxGeometry width="50" height="50" relative="1" as="geometry">
                        <mxPoint x="769" y="435.01" as="sourcePoint"/>
                        <mxPoint x="772" y="226" as="targetPoint"/>
                    </mxGeometry>
                </mxCell>
                <mxCell id="CftCwrz-9hFsydS2TWhx-31" value="Send text Message" style="html=1;verticalAlign=bottom;endArrow=block;curved=0;rounded=0;exitX=1.3;exitY=0.462;exitDx=0;exitDy=0;exitPerimeter=0;strokeWidth=2;" parent="1" edge="1">
                    <mxGeometry relative="1" as="geometry">
                        <mxPoint x="80" y="391.11" as="sourcePoint"/>
                        <mxPoint x="198" y="391" as="targetPoint"/>
                    </mxGeometry>
                </mxCell>
                <mxCell id="CftCwrz-9hFsydS2TWhx-32" value="Message sent confirm" style="html=1;verticalAlign=bottom;endArrow=open;dashed=1;endSize=8;curved=0;rounded=0;entryX=1.5;entryY=0.632;entryDx=0;entryDy=0;entryPerimeter=0;strokeWidth=2;" parent="1" edge="1">
                    <mxGeometry relative="1" as="geometry">
                        <mxPoint x="80" y="525.96" as="targetPoint"/>
                        <mxPoint x="199" y="526" as="sourcePoint"/>
                    </mxGeometry>
                </mxCell>
                <mxCell id="CftCwrz-9hFsydS2TWhx-34" value="Read Message" style="html=1;verticalAlign=bottom;endArrow=block;curved=0;rounded=0;strokeWidth=2;" parent="1" edge="1">
                    <mxGeometry relative="1" as="geometry">
                        <mxPoint x="208" y="403" as="sourcePoint"/>
                        <mxPoint x="339" y="403" as="targetPoint"/>
                    </mxGeometry>
                </mxCell>
                <mxCell id="CftCwrz-9hFsydS2TWhx-35" value="Message Read Confirm" style="html=1;verticalAlign=bottom;endArrow=open;dashed=1;endSize=8;curved=0;rounded=0;strokeWidth=2;" parent="1" edge="1">
                    <mxGeometry relative="1" as="geometry">
                        <mxPoint x="208" y="509" as="targetPoint"/>
                        <mxPoint x="334" y="509" as="sourcePoint"/>
                    </mxGeometry>
                </mxCell>
                <mxCell id="CftCwrz-9hFsydS2TWhx-37" value="Edit message" style="html=1;verticalAlign=bottom;endArrow=block;curved=0;rounded=0;strokeWidth=2;" parent="1" edge="1">
                    <mxGeometry relative="1" as="geometry">
                        <mxPoint x="349.5" y="425" as="sourcePoint"/>
                        <mxPoint x="476" y="425" as="targetPoint"/>
                    </mxGeometry>
                </mxCell>
                <mxCell id="CftCwrz-9hFsydS2TWhx-40" value="Message Edited" style="html=1;verticalAlign=bottom;endArrow=open;dashed=1;endSize=8;curved=0;rounded=0;strokeWidth=2;" parent="1" edge="1">
                    <mxGeometry relative="1" as="geometry">
                        <mxPoint x="474" y="493" as="sourcePoint"/>
                        <mxPoint x="349" y="493" as="targetPoint"/>
                    </mxGeometry>
                </mxCell>
                <mxCell id="GeAqq0kVGGHvpLr57b-p-2" value="Message Encryption" style="html=1;verticalAlign=bottom;endArrow=block;curved=0;rounded=0;strokeWidth=2;" parent="1" edge="1">
                    <mxGeometry relative="1" as="geometry">
                        <mxPoint x="486" y="436" as="sourcePoint"/>
                        <mxPoint x="621" y="436" as="targetPoint"/>
                    </mxGeometry>
                </mxCell>
                <mxCell id="GeAqq0kVGGHvpLr57b-p-3" value="Message Encrypted" style="html=1;verticalAlign=bottom;endArrow=open;dashed=1;endSize=8;curved=0;rounded=0;strokeWidth=2;" parent="1" edge="1">
                    <mxGeometry relative="1" as="geometry">
                        <mxPoint x="489" y="481" as="targetPoint"/>
                        <mxPoint x="620" y="481" as="sourcePoint"/>
                    </mxGeometry>
                </mxCell>
                <mxCell id="GeAqq0kVGGHvpLr57b-p-8" value="" style="endArrow=none;dashed=1;html=1;rounded=0;strokeWidth=2;" parent="1" edge="1">
                    <mxGeometry width="50" height="50" relative="1" as="geometry">
                        <mxPoint x="770" y="715" as="sourcePoint"/>
                        <mxPoint x="770" y="482.75" as="targetPoint"/>
                    </mxGeometry>
                </mxCell>
                <mxCell id="GeAqq0kVGGHvpLr57b-p-9" value="" style="html=1;points=[[0,0,0,0,5],[0,1,0,0,-5],[1,0,0,0,5],[1,1,0,0,-5]];perimeter=orthogonalPerimeter;outlineConnect=0;targetShapes=umlLifeline;portConstraint=eastwest;newEdgeStyle={&quot;curved&quot;:0,&quot;rounded&quot;:0};strokeWidth=2;" parent="1" vertex="1">
                    <mxGeometry x="763" y="436" width="10" height="45" as="geometry"/>
                </mxCell>
                <mxCell id="GeAqq0kVGGHvpLr57b-p-10" value="Store Message" style="html=1;verticalAlign=bottom;endArrow=block;curved=0;rounded=0;strokeWidth=2;" parent="1" edge="1">
                    <mxGeometry relative="1" as="geometry">
                        <mxPoint x="633" y="445" as="sourcePoint"/>
                        <mxPoint x="764" y="445" as="targetPoint"/>
                    </mxGeometry>
                </mxCell>
                <mxCell id="GeAqq0kVGGHvpLr57b-p-11" value="Message Stored" style="html=1;verticalAlign=bottom;endArrow=open;dashed=1;endSize=8;curved=0;rounded=0;entryX=1;entryY=1;entryDx=0;entryDy=-5;entryPerimeter=0;strokeWidth=2;" parent="1" edge="1">
                    <mxGeometry x="0.0568" y="-1" relative="1" as="geometry">
                        <mxPoint x="630.5" y="472" as="targetPoint"/>
                        <mxPoint x="763" y="474" as="sourcePoint"/>
                        <mxPoint as="offset"/>
                    </mxGeometry>
                </mxCell>
                <mxCell id="GeAqq0kVGGHvpLr57b-p-13" value="Logout" style="html=1;verticalAlign=bottom;endArrow=block;curved=0;rounded=0;strokeWidth=2;" parent="1" edge="1">
                    <mxGeometry relative="1" as="geometry">
                        <mxPoint x="81" y="621" as="sourcePoint"/>
                        <mxPoint x="198" y="621" as="targetPoint"/>
                    </mxGeometry>
                </mxCell>
                <mxCell id="GeAqq0kVGGHvpLr57b-p-14" value="Logout Confirm" style="html=1;verticalAlign=bottom;endArrow=open;dashed=1;endSize=8;curved=0;rounded=0;strokeWidth=2;" parent="1" edge="1">
                    <mxGeometry relative="1" as="geometry">
                        <mxPoint x="81" y="688" as="targetPoint"/>
                        <mxPoint x="198" y="688" as="sourcePoint"/>
                    </mxGeometry>
                </mxCell>
                <mxCell id="GeAqq0kVGGHvpLr57b-p-16" value="Logout User" style="html=1;verticalAlign=bottom;endArrow=block;curved=0;rounded=0;entryX=1;entryY=0;entryDx=0;entryDy=5;strokeWidth=2;" parent="1" edge="1">
                    <mxGeometry relative="1" as="geometry">
                        <mxPoint x="208" y="633" as="sourcePoint"/>
                        <mxPoint x="340" y="633" as="targetPoint"/>
                    </mxGeometry>
                </mxCell>
                <mxCell id="GeAqq0kVGGHvpLr57b-p-17" value="User Loggedout" style="html=1;verticalAlign=bottom;endArrow=open;dashed=1;endSize=8;curved=0;rounded=0;strokeWidth=2;" parent="1" edge="1">
                    <mxGeometry relative="1" as="geometry">
                        <mxPoint x="206.5" y="675" as="targetPoint"/>
                        <mxPoint x="337" y="675" as="sourcePoint"/>
                    </mxGeometry>
                </mxCell>
            </root>
        </mxGraphModel>
    </diagram>
    <diagram id="vjZUn_Zd-iHyZqwyr8SZ" name="Page-2">
        <mxGraphModel dx="1120" dy="518" grid="0" gridSize="10" guides="1" tooltips="1" connect="1" arrows="1" fold="1" page="0" pageScale="1" pageWidth="850" pageHeight="1100" math="0" shadow="0">
            <root>
                <mxCell id="0"/>
                <mxCell id="1" parent="0"/>
            </root>
        </mxGraphModel>
    </diagram>
    <diagram id="4r8vpKJh1Zw1xEgDenoG" name="Page-3">
        <mxGraphModel dx="1120" dy="518" grid="0" gridSize="10" guides="1" tooltips="1" connect="1" arrows="1" fold="1" page="0" pageScale="1" pageWidth="850" pageHeight="1100" math="0" shadow="0">
            <root>
                <mxCell id="0"/>
                <mxCell id="1" parent="0"/>
            </root>
        </mxGraphModel>
    </diagram>
</mxfile>